<svg xmlns="http://www.w3.org/2000/svg" viewBox="0 0 10.068 161.04">
  <path id="Path_7" data-name="Path 7" d="M6.432,0V-3.816H2.5V0H1.056V-8.544H2.5v3.48H6.432v-3.48H7.86V0Zm4.992-7.3V-4.98h4.008v1.236H11.424v2.5h4.392V0H9.984V-8.544H15.7V-7.3Zm11.7,6.048V0h-5.64V-8.544h1.44v7.3Zm6.816,0V0H24.3V-8.544h1.44v7.3Zm4.176-7.476a4,4,0,0,1,2.106.54A3.536,3.536,0,0,1,37.6-6.642a5.436,5.436,0,0,1,.48,2.37A5.436,5.436,0,0,1,37.6-1.9,3.536,3.536,0,0,1,36.222-.36a4,4,0,0,1-2.106.54A4,4,0,0,1,32.01-.36,3.536,3.536,0,0,1,30.636-1.9a5.436,5.436,0,0,1-.48-2.37,5.436,5.436,0,0,1,.48-2.37A3.536,3.536,0,0,1,32.01-8.184,4,4,0,0,1,34.116-8.724Zm0,1.284a2.171,2.171,0,0,0-1.806.852,3.666,3.666,0,0,0-.666,2.316,3.666,3.666,0,0,0,.666,2.316,2.171,2.171,0,0,0,1.806.852,2.171,2.171,0,0,0,1.806-.852,3.666,3.666,0,0,0,.666-2.316,3.666,3.666,0,0,0-.666-2.316A2.171,2.171,0,0,0,34.116-7.44Zm9.792-.948a5.049,5.049,0,0,1,2.406.552,3.885,3.885,0,0,1,1.6,1.56,4.712,4.712,0,0,1,.564,2.34,3.981,3.981,0,0,1-.324,1.7A2.388,2.388,0,0,1,47.3-1.206a2.147,2.147,0,0,1-1.182.342,1.57,1.57,0,0,1-.936-.258,1.213,1.213,0,0,1-.468-.774h-.024A1.679,1.679,0,0,1,43.08-.864a1.558,1.558,0,0,1-1.308-.606,2.839,2.839,0,0,1-.48-1.734,3.95,3.95,0,0,1,.294-1.572A2.485,2.485,0,0,1,42.4-5.838a1.965,1.965,0,0,1,1.182-.378,1.323,1.323,0,0,1,1.332.876h.024q.108-.612.144-.756H46.2q-.2,1.008-.348,2a11.437,11.437,0,0,0-.144,1.476,1,1,0,0,0,.15.612.536.536,0,0,0,.45.192,1.058,1.058,0,0,0,.9-.54,2.865,2.865,0,0,0,.36-1.584,3.769,3.769,0,0,0-.45-1.872A3.085,3.085,0,0,0,45.84-7.05a4.073,4.073,0,0,0-1.932-.438,3.945,3.945,0,0,0-2.118.546,3.547,3.547,0,0,0-1.344,1.494,4.784,4.784,0,0,0-.462,2.124,4.169,4.169,0,0,0,.462,2.016,3.134,3.134,0,0,0,1.308,1.3,4.143,4.143,0,0,0,1.974.45A4.9,4.9,0,0,0,46.356-.2l.408.792a5.917,5.917,0,0,1-3.036.756A5.181,5.181,0,0,1,41.262.786a3.867,3.867,0,0,1-1.62-1.614,5.18,5.18,0,0,1-.57-2.5,5.587,5.587,0,0,1,.582-2.556,4.491,4.491,0,0,1,1.68-1.83A4.8,4.8,0,0,1,43.908-8.388Zm-.132,3.216a1.074,1.074,0,0,0-.912.522,2.446,2.446,0,0,0-.36,1.41,1.685,1.685,0,0,0,.24.984.779.779,0,0,0,.672.336,1.039,1.039,0,0,0,.882-.528,2.761,2.761,0,0,0,.354-1.536,1.463,1.463,0,0,0-.228-.876A.755.755,0,0,0,43.776-5.172Zm8.964-3.1a2.617,2.617,0,0,1,1.824.618,2.457,2.457,0,0,1,.768,1.71h-1.44a1.416,1.416,0,0,0-.39-.852,1.151,1.151,0,0,0-.822-.288,1.472,1.472,0,0,0-1.266.678,3.791,3.791,0,0,0-.51,2.058h.024a2.321,2.321,0,0,1,1.92-.936,2.718,2.718,0,0,1,1.362.336,2.323,2.323,0,0,1,.918.936,2.859,2.859,0,0,1,.324,1.38,2.882,2.882,0,0,1-.366,1.464,2.548,2.548,0,0,1-1.026.99A3.149,3.149,0,0,1,52.548.18a2.634,2.634,0,0,1-2.22-1,4.781,4.781,0,0,1-.768-2.952A5.675,5.675,0,0,1,50.394-7.1,2.719,2.719,0,0,1,52.74-8.268Zm-.168,4.1a1.322,1.322,0,0,0-1.038.438,1.677,1.677,0,0,0-.39,1.158,1.641,1.641,0,0,0,.378,1.14,1.311,1.311,0,0,0,1.026.42,1.339,1.339,0,0,0,1.038-.426,1.649,1.649,0,0,0,.39-1.158,1.652,1.652,0,0,0-.384-1.14A1.3,1.3,0,0,0,52.572-4.164ZM62.3-6.852a16,16,0,0,0-1.656,3.108A18.758,18.758,0,0,0,59.568,0h-1.56a20.592,20.592,0,0,1,1.248-3.948A14.85,14.85,0,0,1,60.9-6.876H56.484V-8.088H62.3ZM72,0V-4.3q0-1.8.048-3.24h-.024q-.42,1.4-1.032,3.216L69.516,0H67.872L66.4-4.32q-.612-1.812-1.032-3.216H65.34q.048,1.44.048,3.24V0H64V-8.544h2.316l1.38,4.068q.564,1.644.984,3.216H68.7q.468-1.668,1-3.216l1.38-4.068h2.316V0Zm3.5,0V-8.544h1.44V0ZM84.7-1.248V0h-5.64V-8.544H80.5v7.3ZM87.312-7.3V-4.98H91.32v1.236H87.312v2.5H91.7V0H85.872V-8.544h5.712V-7.3ZM95.76-8.724a3.415,3.415,0,0,1,2.346.714,2.664,2.664,0,0,1,.8,2.094H97.452a1.585,1.585,0,0,0-.444-1.218,1.8,1.8,0,0,0-1.272-.414,1.772,1.772,0,0,0-1.1.306.992.992,0,0,0-.4.834.925.925,0,0,0,.2.618,1.508,1.508,0,0,0,.6.4,8.614,8.614,0,0,0,1.158.342,10.56,10.56,0,0,1,1.59.5,2.359,2.359,0,0,1,.984.762,2.208,2.208,0,0,1,.378,1.356,2.419,2.419,0,0,1-.4,1.374,2.564,2.564,0,0,1-1.122.918A4.071,4.071,0,0,1,95.952.18,3.573,3.573,0,0,1,93.5-.594a2.813,2.813,0,0,1-.876-2.226H94.1a1.785,1.785,0,0,0,.48,1.356,1.927,1.927,0,0,0,1.38.456,1.984,1.984,0,0,0,1.242-.348,1.134,1.134,0,0,0,.45-.948.987.987,0,0,0-.2-.66,1.4,1.4,0,0,0-.582-.384,10.914,10.914,0,0,0-1.146-.336,11.5,11.5,0,0,1-1.608-.5,2.34,2.34,0,0,1-.978-.75,2.16,2.16,0,0,1-.378-1.338,2.251,2.251,0,0,1,.372-1.278,2.423,2.423,0,0,1,1.05-.864A3.8,3.8,0,0,1,95.76-8.724ZM103.644-7.3V0h-1.428V-7.3H99.408V-8.544h7.044V-7.3Zm6.984-1.428a4,4,0,0,1,2.106.54,3.536,3.536,0,0,1,1.374,1.542,5.436,5.436,0,0,1,.48,2.37,5.436,5.436,0,0,1-.48,2.37A3.536,3.536,0,0,1,112.734-.36a4,4,0,0,1-2.106.54,4,4,0,0,1-2.106-.54A3.536,3.536,0,0,1,107.148-1.9a5.436,5.436,0,0,1-.48-2.37,5.436,5.436,0,0,1,.48-2.37,3.536,3.536,0,0,1,1.374-1.542A4,4,0,0,1,110.628-8.724Zm0,1.284a2.171,2.171,0,0,0-1.806.852,3.666,3.666,0,0,0-.666,2.316,3.666,3.666,0,0,0,.666,2.316,2.171,2.171,0,0,0,1.806.852,2.171,2.171,0,0,0,1.806-.852,3.666,3.666,0,0,0,.666-2.316,3.666,3.666,0,0,0-.666-2.316A2.171,2.171,0,0,0,110.628-7.44ZM121.128,0,119.28-3.576q-.972-1.9-1.812-3.672h-.024q.072,1.944.072,3.888V0h-1.392V-8.544H118.2l1.836,3.576q.972,1.9,1.812,3.672h.024q-.06-2.16-.06-3.888v-3.36h1.38V0Zm5.628-7.3V-4.98h4.008v1.236h-4.008v2.5h4.392V0h-5.832V-8.544h5.712V-7.3ZM132.42,0V-1.7H134V0Zm6.252-8.724a3.886,3.886,0,0,1,1.794.4,2.928,2.928,0,0,1,1.2,1.1,3.4,3.4,0,0,1,.474,1.614h-1.452a2.045,2.045,0,0,0-.63-1.338,1.979,1.979,0,0,0-1.386-.486,2.016,2.016,0,0,0-1.716.846,3.838,3.838,0,0,0-.624,2.322,3.865,3.865,0,0,0,.618,2.322,1.977,1.977,0,0,0,1.686.846,2.009,2.009,0,0,0,1.4-.492,2.164,2.164,0,0,0,.666-1.368h1.476a3.359,3.359,0,0,1-1.068,2.31,3.577,3.577,0,0,1-2.472.834,3.716,3.716,0,0,1-2.022-.54A3.463,3.463,0,0,1,135.3-1.9a5.681,5.681,0,0,1-.456-2.37,5.617,5.617,0,0,1,.462-2.37,3.487,3.487,0,0,1,1.326-1.542A3.769,3.769,0,0,1,138.672-8.724Zm8.532,0a4,4,0,0,1,2.106.54,3.536,3.536,0,0,1,1.374,1.542,5.436,5.436,0,0,1,.48,2.37,5.436,5.436,0,0,1-.48,2.37A3.536,3.536,0,0,1,149.31-.36,4,4,0,0,1,147.2.18,4,4,0,0,1,145.1-.36,3.536,3.536,0,0,1,143.724-1.9a5.435,5.435,0,0,1-.48-2.37,5.435,5.435,0,0,1,.48-2.37A3.536,3.536,0,0,1,145.1-8.184,4,4,0,0,1,147.2-8.724Zm0,1.284a2.171,2.171,0,0,0-1.806.852,3.666,3.666,0,0,0-.666,2.316,3.666,3.666,0,0,0,.666,2.316A2.171,2.171,0,0,0,147.2-1.1a2.171,2.171,0,0,0,1.806-.852,3.666,3.666,0,0,0,.666-2.316,3.666,3.666,0,0,0-.666-2.316A2.171,2.171,0,0,0,147.2-7.44ZM160.7,0V-4.3q0-1.8.048-3.24h-.024q-.42,1.4-1.032,3.216L158.22,0h-1.644L155.1-4.32q-.612-1.812-1.032-3.216h-.024q.048,1.44.048,3.24V0H152.7V-8.544h2.316l1.38,4.068q.564,1.644.984,3.216h.024q.468-1.668,1-3.216l1.38-4.068H162.1V0Z" transform="translate(8.724 162.096) rotate(-90)"/>
</svg>
