<svg xmlns="http://www.w3.org/2000/svg" viewBox="0 0 8.904 87.216">
  <path id="Path_6" data-name="Path 6" d="M4.44-8.724a4,4,0,0,1,2.106.54A3.536,3.536,0,0,1,7.92-6.642a5.436,5.436,0,0,1,.48,2.37A5.436,5.436,0,0,1,7.92-1.9,3.536,3.536,0,0,1,6.546-.36,4,4,0,0,1,4.44.18,4,4,0,0,1,2.334-.36,3.536,3.536,0,0,1,.96-1.9a5.436,5.436,0,0,1-.48-2.37,5.436,5.436,0,0,1,.48-2.37A3.536,3.536,0,0,1,2.334-8.184,4,4,0,0,1,4.44-8.724Zm0,1.284a2.171,2.171,0,0,0-1.806.852,3.666,3.666,0,0,0-.666,2.316,3.666,3.666,0,0,0,.666,2.316A2.171,2.171,0,0,0,4.44-1.1a2.171,2.171,0,0,0,1.806-.852,3.666,3.666,0,0,0,.666-2.316,3.666,3.666,0,0,0-.666-2.316A2.171,2.171,0,0,0,4.44-7.44Zm8.412.144V0H11.424V-7.3H8.616V-8.544H15.66V-7.3ZM22.02,0V-3.816H18.084V0h-1.44V-8.544h1.44v3.48H22.02v-3.48h1.428V0Zm4.992-7.3V-4.98H31.02v1.236H27.012v2.5H31.4V0H25.572V-8.544h5.712V-7.3Zm9-1.248a3.6,3.6,0,0,1,2.292.612A2.124,2.124,0,0,1,39.06-6.18a2.2,2.2,0,0,1-.426,1.368,2,2,0,0,1-1.158.744v.024a1.51,1.51,0,0,1,.72.492,4.3,4.3,0,0,1,.552,1.14L39.624,0H38.052l-.72-2.148a2.206,2.206,0,0,0-.594-1.008,1.544,1.544,0,0,0-.99-.276H34.512V0h-1.44V-8.544Zm-1.5,3.936H35.94A1.824,1.824,0,0,0,37.2-4.98,1.311,1.311,0,0,0,37.608-6q0-1.356-1.752-1.356H34.512ZM45.108-7.3V-4.98h4.008v1.236H45.108v2.5H49.5V0H43.668V-8.544H49.38V-7.3ZM52.776,0,49.968-8.544h1.476L52.608-4.98q.516,1.536,1.068,3.576H53.7q.432-1.644,1.056-3.576L55.92-8.544H57.4L54.6,0Zm6.948-7.3V-4.98h4.008v1.236H59.724v2.5h4.392V0H58.284V-8.544H64V-7.3ZM70.788,0,68.94-3.576q-.972-1.9-1.812-3.672H67.1q.072,1.944.072,3.888V0H65.784V-8.544H67.86L69.7-4.968q.972,1.9,1.812,3.672h.024q-.06-2.16-.06-3.888v-3.36h1.38V0Zm7.3-7.3V0H76.656V-7.3H73.848V-8.544h7.044V-7.3Zm6.228-1.428a3.415,3.415,0,0,1,2.346.714,2.664,2.664,0,0,1,.8,2.094H86a1.585,1.585,0,0,0-.444-1.218,1.8,1.8,0,0,0-1.272-.414,1.772,1.772,0,0,0-1.1.306.992.992,0,0,0-.4.834.925.925,0,0,0,.2.618,1.508,1.508,0,0,0,.6.4,8.614,8.614,0,0,0,1.158.342,10.56,10.56,0,0,1,1.59.5,2.359,2.359,0,0,1,.984.762A2.208,2.208,0,0,1,87.7-2.436a2.419,2.419,0,0,1-.4,1.374,2.564,2.564,0,0,1-1.122.918A4.071,4.071,0,0,1,84.5.18a3.573,3.573,0,0,1-2.448-.774A2.813,2.813,0,0,1,81.18-2.82h1.476a1.785,1.785,0,0,0,.48,1.356,1.927,1.927,0,0,0,1.38.456,1.984,1.984,0,0,0,1.242-.348,1.134,1.134,0,0,0,.45-.948.987.987,0,0,0-.2-.66,1.4,1.4,0,0,0-.582-.384,10.914,10.914,0,0,0-1.146-.336,11.5,11.5,0,0,1-1.608-.5,2.34,2.34,0,0,1-.978-.75,2.16,2.16,0,0,1-.378-1.338,2.251,2.251,0,0,1,.372-1.278,2.423,2.423,0,0,1,1.05-.864A3.8,3.8,0,0,1,84.312-8.724Z" transform="translate(8.724 87.696) rotate(-90)"/>
</svg>
